# xmcd
#
# Track frame offsets: 
#        150
#        17553
#        35448
#        51516
#        68868
#        91546
#        103218
#        127136
#        156127
#        174099
#        185802
#
# Disc length: 2754 seconds
#
# Revision: 0
# Processed by: cddbd v1.5.1PL2 Copyright (c) Steve Scherf et al.
# Submitted via: ExactAudioCopy v0.95b4
#
DISCID=900ac00b
DTITLE=Bark - 1997-08-xx - Rehearsal - Yoe PA - Disc 1
DYEAR=1997
DGENRE=Rock
TTITLE0=Roll With It
TTITLE1=Pride And Joy
TTITLE2=Breadmaker
TTITLE3=Trouble No More
TTITLE4=Light My Fire
TTITLE5=Break On Through
TTITLE6=Thick As A Brick
TTITLE7=Aqualung
TTITLE8=Raspberry Beret
TTITLE9=Mississippi Queen
TTITLE10=Superstition
EXTD=
EXTT0=
EXTT1=
EXTT2=
EXTT3=
EXTT4=
EXTT5=
EXTT6=
EXTT7=
EXTT8=
EXTT9=
EXTT10=
PLAYORDER=
